<?xml version="1.0" standalone="no"?>
<!DOCTYPE svg PUBLIC "-//W3C//DTD SVG 20010904//EN"
 "http://www.w3.org/TR/2001/REC-SVG-20010904/DTD/svg10.dtd">
<svg version="1.0" xmlns="http://www.w3.org/2000/svg"
 width="16.000000pt" height="16.000000pt" viewBox="0 0 16.000000 16.000000"
 preserveAspectRatio="xMidYMid meet">
<metadata>
Created by potrace 1.11, written by Peter Selinger 2001-2013
</metadata>
<g transform="translate(0.000000,16.000000) scale(0.003125,-0.003125)"
fill="#000000" stroke="none">
<path d="M1460 4356 c0 -5 -3 -6 -6 -3 -9 9 -59 -62 -68 -96 -3 -15 -10 -26
-14 -23 -4 2 -16 -8 -27 -23 -18 -24 -18 -25 0 -11 17 14 17 14 5 -7 -8 -12
-18 -19 -22 -17 -4 3 -8 -2 -8 -10 0 -9 -4 -16 -9 -16 -5 0 -16 -12 -26 -26
-12 -18 -13 -24 -4 -20 8 4 4 -1 -8 -10 -13 -9 -23 -21 -23 -27 0 -5 -8 -16
-17 -24 -10 -8 -12 -12 -6 -8 9 4 11 1 7 -9 -3 -9 -9 -14 -13 -12 -3 2 -15 -8
-26 -23 -19 -26 -19 -26 0 -11 19 14 19 14 6 -5 -8 -11 -26 -31 -40 -44 -14
-13 -19 -20 -11 -16 8 4 4 -3 -10 -15 -14 -12 -18 -19 -10 -15 8 4 4 -3 -10
-15 -14 -12 -18 -19 -10 -15 8 4 4 -3 -10 -15 -14 -12 -18 -18 -10 -14 8 4 0
-6 -17 -23 -34 -32 -43 -49 -20 -38 6 4 -1 -6 -18 -20 -16 -15 -23 -24 -15
-20 8 4 4 -3 -10 -15 -14 -12 -18 -19 -10 -15 8 4 4 -3 -10 -15 -14 -12 -19
-19 -12 -15 11 6 12 3 3 -14 -7 -11 -14 -21 -17 -21 -3 0 -2 5 2 12 4 7 3 8
-5 4 -6 -4 -9 -11 -6 -15 2 -5 -8 -21 -23 -37 -15 -15 -20 -24 -12 -20 8 4 4
-2 -10 -14 -14 -12 -18 -19 -10 -15 8 4 4 -3 -10 -15 -14 -12 -18 -19 -10 -15
8 4 7 0 -4 -9 -16 -13 -16 -17 -4 -35 8 -12 17 -18 20 -16 3 3 8 -1 12 -10 4
-11 2 -14 -7 -10 -6 3 -2 -2 11 -11 12 -9 22 -24 22 -33 0 -20 34 -73 42 -66
3 3 8 -1 12 -10 4 -11 2 -14 -7 -10 -6 4 -1 -3 13 -15 14 -12 19 -18 11 -14
-10 5 -9 -2 4 -24 10 -17 22 -29 26 -27 4 3 10 -2 13 -11 4 -10 2 -13 -7 -9
-6 4 -1 -3 13 -15 14 -12 18 -18 11 -14 -8 4 -4 -8 10 -27 13 -19 24 -37 24
-41 0 -3 4 -10 9 -15 5 -5 6 -3 2 5 -4 6 -5 12 -2 12 3 0 10 -10 17 -21 9 -17
8 -20 -3 -14 -7 3 -5 0 4 -8 10 -8 15 -17 11 -20 -3 -4 -1 -7 6 -7 7 0 10 -4
6 -9 -3 -6 3 -15 14 -20 10 -6 21 -18 25 -26 4 -11 2 -14 -7 -10 -6 4 -3 -2 8
-12 12 -10 27 -27 35 -38 14 -19 14 -19 -4 -5 -19 15 -19 14 -2 -12 10 -16 23
-28 28 -28 5 0 6 -4 3 -10 -3 -5 -2 -10 3 -10 5 0 18 -12 28 -27 17 -27 17
-28 -2 -13 -14 11 -13 8 4 -11 12 -14 22 -30 22 -37 0 -6 8 -16 18 -21 9 -6
13 -11 8 -11 -6 0 -1 -7 10 -16 10 -8 12 -13 4 -9 -8 4 -6 -1 4 -9 11 -9 16
-16 11 -16 -5 0 0 -7 11 -16 10 -8 12 -13 4 -9 -8 4 -4 -3 10 -15 14 -12 19
-19 13 -15 -9 4 -11 1 -7 -9 3 -9 10 -16 15 -16 5 0 9 -5 9 -11 0 -7 8 -18 18
-26 11 -9 12 -12 2 -8 -8 4 -4 -3 10 -15 14 -12 19 -19 12 -15 -11 6 -12 3 -3
-14 7 -11 16 -21 21 -21 5 0 14 -10 21 -21 9 -17 8 -20 -3 -14 -7 4 -2 -3 12
-15 14 -12 19 -19 12 -15 -11 6 -11 3 -1 -13 7 -12 16 -19 20 -16 4 2 10 -3
13 -12 4 -10 2 -13 -7 -9 -6 4 -3 -1 7 -9 11 -9 16 -16 11 -16 -5 0 0 -7 11
-16 10 -8 12 -13 4 -9 -8 4 -6 -1 4 -9 11 -9 16 -16 11 -16 -5 0 0 -7 11 -16
10 -8 12 -13 4 -9 -8 4 -4 -3 10 -15 14 -12 19 -19 13 -15 -9 4 -11 1 -7 -10
4 -8 15 -20 26 -26 11 -6 17 -17 14 -24 -3 -8 0 -17 6 -21 7 -4 8 -3 4 4 -4 7
-5 12 -2 12 3 0 10 -10 17 -21 8 -16 8 -20 -1 -14 -8 5 -8 1 1 -13 7 -12 17
-18 21 -16 4 3 8 -4 8 -15 0 -12 4 -21 10 -21 5 0 14 -10 21 -21 9 -17 8 -20
-3 -14 -7 4 -2 -3 12 -15 14 -12 18 -19 10 -15 -10 4 -9 2 2 -8 10 -8 15 -17
11 -20 -3 -4 -1 -7 6 -7 7 0 10 -4 7 -9 -3 -5 1 -11 8 -14 8 -3 20 -16 26 -28
10 -17 9 -20 -2 -14 -7 4 -2 -3 12 -15 14 -12 19 -19 13 -15 -9 4 -11 1 -7
-10 4 -8 15 -20 26 -26 10 -6 17 -16 15 -22 -2 -6 6 -20 17 -30 12 -10 14 -16
6 -12 -8 4 -6 -1 4 -9 11 -9 16 -16 11 -16 -5 0 0 -7 11 -16 10 -8 13 -12 6
-9 -11 6 -12 3 -3 -13 6 -11 17 -22 26 -26 8 -3 15 -9 14 -13 -3 -19 2 -34 10
-29 5 3 12 -1 15 -10 4 -10 2 -13 -7 -9 -6 4 -4 0 5 -8 10 -8 15 -17 11 -20
-3 -4 -2 -7 4 -7 6 0 18 -12 28 -26 9 -15 12 -23 5 -19 -9 6 -9 3 -1 -14 7
-11 14 -21 17 -21 3 0 2 5 -1 10 -3 6 -4 10 -1 10 3 0 10 -10 17 -21 8 -16 8
-20 -1 -14 -8 5 -8 1 1 -13 7 -12 16 -19 20 -16 4 2 10 -3 13 -12 4 -10 2 -13
-7 -9 -6 4 -1 -3 13 -15 14 -12 19 -19 13 -15 -8 3 -6 -6 4 -24 10 -16 20 -28
23 -26 4 2 15 -10 25 -27 10 -17 12 -28 5 -23 -9 6 -10 3 -1 -14 7 -11 14 -21
17 -21 3 0 2 5 -2 12 -4 7 -3 8 4 4 6 -4 9 -13 6 -21 -4 -8 1 -18 10 -21 9 -3
13 -10 10 -15 -3 -5 0 -9 6 -9 6 0 8 -4 5 -10 -3 -5 -1 -10 4 -10 6 0 11 -7
11 -16 0 -8 4 -13 9 -10 5 3 12 -1 15 -10 4 -10 2 -13 -7 -9 -6 4 -3 -1 7 -9
11 -9 16 -16 11 -16 -5 0 1 -7 13 -16 13 -9 21 -21 19 -27 -2 -7 3 -18 12 -25
13 -11 13 -12 1 -7 -8 4 -6 -1 4 -9 11 -9 16 -16 12 -16 -5 0 2 -9 15 -21 13
-11 18 -17 11 -14 -11 6 -11 3 0 -14 7 -12 16 -21 20 -21 4 0 12 -10 19 -21 8
-16 8 -20 -1 -14 -8 5 -8 1 1 -13 7 -12 16 -19 20 -16 4 2 10 -3 13 -12 4 -10
2 -13 -7 -9 -6 4 -2 -2 9 -12 12 -10 24 -31 28 -46 4 -15 10 -25 15 -22 5 2
12 -2 15 -11 4 -10 2 -13 -7 -9 -6 4 -1 -3 13 -15 14 -12 18 -19 10 -15 -8 4
-4 -2 9 -13 13 -10 21 -24 17 -30 -3 -6 -1 -14 6 -18 7 -4 10 -4 6 1 -4 4 0
14 10 22 11 10 12 12 2 8 -8 -4 -4 3 10 15 14 12 18 19 10 15 -8 -4 -4 3 10
15 14 12 19 19 12 15 -10 -5 -10 -1 -1 19 7 14 15 24 18 21 4 -2 13 5 20 17
10 16 10 19 -1 13 -7 -4 -2 3 12 15 14 12 19 19 13 15 -22 -11 -14 5 15 32 15
15 20 23 12 19 -8 -4 -6 0 4 8 11 9 16 16 11 16 -5 0 0 7 11 16 10 8 12 13 4
9 -8 -4 -6 1 4 9 11 9 16 16 11 16 -5 0 0 7 11 16 10 8 12 13 4 9 -8 -4 -6 1
4 9 11 9 16 16 11 16 -5 0 0 7 11 16 10 8 12 13 4 9 -8 -4 -4 3 10 15 14 12
19 19 12 15 -11 -6 -12 -3 -3 14 7 11 16 21 21 21 5 0 14 10 21 21 9 17 8 20
-3 14 -7 -4 -2 3 12 15 14 12 19 19 13 15 -22 -11 -14 5 15 32 15 15 21 23 14
18 -11 -6 -12 -3 -2 14 6 12 17 24 25 27 8 3 11 13 8 21 -4 9 -2 14 3 10 6 -3
16 3 23 15 10 16 10 19 -1 13 -7 -4 -2 2 11 13 15 12 21 24 16 32 -5 8 -4 11
1 7 6 -3 16 3 23 15 9 14 9 18 1 13 -9 -6 -9 -2 -1 14 7 11 14 21 17 21 3 0 2
-4 -1 -10 -3 -5 -4 -10 -1 -10 3 0 10 10 17 21 9 17 8 20 -3 14 -7 -4 -2 3 12
15 14 12 19 19 13 15 -22 -11 -14 5 15 32 15 15 20 23 12 19 -8 -4 -6 0 4 8
11 9 16 16 11 16 -5 0 0 7 11 16 10 8 13 12 6 9 -11 -6 -12 -3 -3 14 7 11 16
21 20 21 5 0 17 12 27 28 17 26 17 27 -2 12 -12 -9 -10 -4 6 15 14 17 28 31
33 33 4 2 4 8 1 14 -4 6 4 20 17 30 13 11 17 17 9 13 -8 -4 -6 1 4 9 11 9 16
16 11 16 -5 0 1 9 13 20 24 23 29 35 10 25 -7 -4 -2 3 12 15 14 12 19 19 13
15 -9 -4 -11 -1 -7 9 3 9 10 13 15 10 8 -5 11 2 8 22 0 3 8 12 18 21 11 8 12
12 3 8 -8 -4 -4 3 10 15 14 12 18 19 10 15 -8 -4 -4 3 10 15 14 12 18 19 10
15 -8 -4 -6 1 4 9 11 9 16 16 10 16 -5 0 -1 5 8 11 11 6 15 16 11 26 -4 11 -3
14 5 9 11 -6 14 0 11 21 0 3 6 10 15 15 9 5 16 14 16 20 0 7 10 23 23 37 18
21 19 23 2 11 -19 -14 -19 -14 -5 5 8 11 23 28 35 38 11 10 13 16 5 12 -10 -4
-9 -2 2 8 10 8 15 17 11 20 -3 4 -1 7 5 7 6 0 16 10 23 21 9 17 8 20 -3 14 -7
-4 -2 3 12 15 14 12 19 19 13 15 -9 -4 -11 -1 -7 9 3 9 9 14 13 12 4 -3 13 4
20 16 10 16 10 19 -1 13 -7 -4 -2 3 12 15 14 12 19 19 13 15 -22 -11 -14 5 15
32 15 15 20 23 12 19 -8 -4 -6 0 4 8 11 9 16 16 11 16 -5 0 0 7 11 16 10 8 13
12 6 9 -11 -6 -12 -3 -3 14 7 11 14 21 17 21 3 0 2 -4 -1 -10 -3 -5 -4 -10 -1
-10 3 0 10 10 17 21 8 16 8 20 -1 14 -9 -6 -9 -2 0 14 6 12 18 25 26 28 7 3
11 9 8 14 -3 5 1 12 10 15 8 3 17 12 20 20 4 10 1 13 -7 9 -6 -4 -1 3 13 15
14 12 18 19 10 15 -8 -4 -6 1 4 9 11 9 16 16 11 16 -5 0 0 7 11 16 10 8 13 12
6 9 -11 -6 -12 -3 -3 14 7 11 16 21 21 21 6 0 10 9 10 21 0 11 4 18 8 15 4 -2
14 4 21 16 10 16 10 19 -1 13 -7 -4 -2 3 12 15 14 12 19 19 13 15 -22 -11 -14
5 15 32 15 15 20 23 12 19 -8 -4 -6 0 4 8 11 9 16 16 10 16 -5 0 -1 5 9 11 9
6 15 14 12 20 -4 5 -1 9 6 9 7 0 9 3 6 7 -4 3 1 12 11 20 11 10 12 12 2 8 -8
-4 -6 1 4 9 11 9 16 16 11 16 -5 0 -1 6 10 13 10 8 15 19 11 25 -3 6 -1 14 5
18 8 4 9 3 5 -4 -4 -7 -5 -12 -2 -12 3 0 10 10 17 21 9 17 8 20 -3 14 -7 -4
-2 3 12 15 14 12 18 19 10 15 -10 -4 -9 -2 2 8 10 8 15 17 11 20 -3 4 -1 7 6
7 7 0 9 5 6 10 -3 6 -2 10 3 10 5 0 17 12 27 26 9 15 12 23 6 20 -7 -5 -9 -1
-5 8 3 9 9 14 13 12 4 -3 13 4 20 16 9 14 9 18 1 13 -9 -6 -9 -2 -1 14 7 11
14 21 17 21 3 0 2 -4 -1 -10 -3 -5 -4 -10 -1 -10 3 0 10 10 17 21 9 17 8 20
-3 14 -7 -4 -2 3 12 15 14 12 18 19 10 15 -8 -4 -6 1 4 9 11 9 16 16 11 16 -5
0 0 7 11 15 19 15 19 15 0 30 -11 8 -16 15 -11 15 5 0 0 7 -11 16 -10 8 -12
13 -4 9 8 -4 4 3 -10 15 -14 12 -18 19 -10 15 8 -4 4 3 -10 15 -14 12 -18 19
-10 15 8 -4 4 3 -10 16 -14 13 -19 20 -11 14 10 -6 8 0 -4 16 -11 15 -23 25
-27 22 -5 -2 -8 6 -8 17 0 12 -15 36 -33 53 -17 17 -25 27 -17 22 13 -8 13 -7
0 11 -8 10 -23 27 -35 37 -11 10 -13 16 -5 12 8 -4 4 3 -10 15 -14 12 -18 19
-10 15 8 -4 4 3 -10 15 -14 12 -18 18 -10 14 8 -4 0 6 -17 23 -33 31 -43 50
-20 37 6 -3 1 4 -13 17 -14 13 -19 20 -10 14 13 -9 13 -8 0 10 -8 11 -24 29
-35 40 -12 11 -16 18 -10 15 6 -3 -1 6 -15 19 -14 13 -18 20 -10 16 8 -4 4 3
-10 15 -14 12 -18 19 -10 15 10 -4 9 -1 -2 8 -10 8 -18 17 -18 21 0 5 -8 15
-18 24 -10 10 -11 13 -3 7 24 -16 -13 34 -38 51 -12 9 -21 24 -21 35 0 10 -4
19 -9 19 -5 0 -20 15 -32 33 -20 27 -20 30 -4 17 18 -14 17 -12 -2 15 l-21 29
-1101 1 c-661 0 -1101 -4 -1101 -9z"/>
</g>
</svg>
